<?xml version="1.0" encoding="UTF-8" standalone="no"?><svg transform="translate(-31 -160)" xmlns="http://www.w3.org/2000/svg" xmlns:xlink="http://www.w3.org/1999/xlink" contentStyleType="text/css" height="1020px" preserveAspectRatio="none" style="width:751px;height:1020px;background:#FFFFFF;" version="1.1" viewBox="0 0 751 1020" width="751px" zoomAndPan="magnify"><defs/><g><!--MD5=[cc67fa000cf779b429b3e47b1f525800]
class Skill--><g id="elem_Skill"><rect codeLine="12" fill="#F1F1F1" height="80.5938" id="Skill" rx="2.5" ry="2.5" style="stroke:#181818;stroke-width:0.5;" width="160" x="504.2367" y="933"/><ellipse cx="564.9867" cy="949" fill="#ADD1B2" rx="11" ry="11" style="stroke:#181818;stroke-width:1.0;"/><path d="M567.3305,944.6719 C566.393,944.2344 565.7992,944.0938 564.9242,944.0938 C562.2992,944.0938 560.2992,946.1719 560.2992,948.8906 L560.2992,950.0156 C560.2992,952.5938 562.4086,954.4844 565.2992,954.4844 C566.518,954.4844 567.6742,954.1875 568.4242,953.6406 C569.0024,953.2344 569.3305,952.7813 569.3305,952.3906 C569.3305,951.9375 568.9399,951.5469 568.4711,951.5469 C568.2524,951.5469 568.0492,951.625 567.8617,951.8125 C567.4086,952.2969 567.4086,952.2969 567.2211,952.3906 C566.7992,952.6563 566.1117,952.7813 565.3461,952.7813 C563.2992,952.7813 562.0024,951.6875 562.0024,949.9844 L562.0024,948.8906 C562.0024,947.1094 563.2524,945.7969 564.9867,945.7969 C565.5649,945.7969 566.1742,945.9531 566.643,946.2031 C567.1274,946.4844 567.2992,946.7031 567.393,947.1094 C567.4555,947.5156 567.4867,947.6406 567.6274,947.7656 C567.768,947.9063 568.0024,948.0156 568.2211,948.0156 C568.4867,948.0156 568.7524,947.875 568.9242,947.6563 C569.0336,947.5 569.0649,947.3125 569.0649,946.8906 L569.0649,945.4688 C569.0649,945.0313 569.0492,944.9063 568.9555,944.75 C568.7992,944.4844 568.518,944.3438 568.2211,944.3438 C567.9242,944.3438 567.7211,944.4375 567.5024,944.75 L567.3305,944.6719 Z " fill="#000000"/><text fill="#000000" font-family="sans-serif" font-size="14" lengthAdjust="spacing" textLength="30" x="585.4867" y="953.8467">Skill</text><line style="stroke:#181818;stroke-width:0.5;" x1="505.2367" x2="663.2367" y1="965" y2="965"/><polygon fill="none" points="515.2367,973.6484,519.2367,977.6484,515.2367,981.6484,511.2367,977.6484" style="stroke:#B38D22;stroke-width:1.0;"/><text fill="#000000" font-family="sans-serif" font-size="14" lengthAdjust="spacing" textLength="134" x="524.2367" y="981.9951">objectType: string</text><ellipse cx="515.2367" cy="994.9453" fill="none" rx="3" ry="3" style="stroke:#038048;stroke-width:1.0;"/><text fill="#000000" font-family="sans-serif" font-size="14" lengthAdjust="spacing" textLength="99" x="524.2367" y="998.292">level: number</text><line style="stroke:#181818;stroke-width:0.5;" x1="505.2367" x2="663.2367" y1="1005.5938" y2="1005.5938"/></g><!--MD5=[89a3e9b91d198353228b90fadf3cc3b2]
class SkillSet--><g id="elem_SkillSet"><rect codeLine="16" fill="#F1F1F1" height="80.5938" id="SkillSet" rx="2.5" ry="2.5" style="stroke:#181818;stroke-width:0.5;" width="344" x="300.2367" y="792"/><ellipse cx="440.4867" cy="808" fill="#ADD1B2" rx="11" ry="11" style="stroke:#181818;stroke-width:1.0;"/><path d="M442.8305,803.6719 C441.893,803.2344 441.2992,803.0938 440.4242,803.0938 C437.7992,803.0938 435.7992,805.1719 435.7992,807.8906 L435.7992,809.0156 C435.7992,811.5938 437.9086,813.4844 440.7992,813.4844 C442.018,813.4844 443.1742,813.1875 443.9242,812.6406 C444.5024,812.2344 444.8305,811.7813 444.8305,811.3906 C444.8305,810.9375 444.4399,810.5469 443.9711,810.5469 C443.7524,810.5469 443.5492,810.625 443.3617,810.8125 C442.9086,811.2969 442.9086,811.2969 442.7211,811.3906 C442.2992,811.6563 441.6117,811.7813 440.8461,811.7813 C438.7992,811.7813 437.5024,810.6875 437.5024,808.9844 L437.5024,807.8906 C437.5024,806.1094 438.7524,804.7969 440.4867,804.7969 C441.0649,804.7969 441.6742,804.9531 442.143,805.2031 C442.6274,805.4844 442.7992,805.7031 442.893,806.1094 C442.9555,806.5156 442.9867,806.6406 443.1274,806.7656 C443.268,806.9063 443.5024,807.0156 443.7211,807.0156 C443.9867,807.0156 444.2524,806.875 444.4242,806.6563 C444.5336,806.5 444.5649,806.3125 444.5649,805.8906 L444.5649,804.4688 C444.5649,804.0313 444.5492,803.9063 444.4555,803.75 C444.2992,803.4844 444.018,803.3438 443.7211,803.3438 C443.4242,803.3438 443.2211,803.4375 443.0024,803.75 L442.8305,803.6719 Z " fill="#000000"/><text fill="#000000" font-family="sans-serif" font-size="14" lengthAdjust="spacing" textLength="55" x="460.9867" y="812.8467">SkillSet</text><line style="stroke:#181818;stroke-width:0.5;" x1="301.2367" x2="643.2367" y1="824" y2="824"/><ellipse cx="311.2367" cy="837.6484" fill="none" rx="3" ry="3" style="stroke:#038048;stroke-width:1.0;"/><text fill="#000000" font-family="sans-serif" font-size="14" lengthAdjust="spacing" textLength="84" x="320.2367" y="840.9951">skills: Skill[]</text><line style="stroke:#181818;stroke-width:0.5;" x1="301.2367" x2="643.2367" y1="848.2969" y2="848.2969"/><ellipse cx="311.2367" cy="861.9453" fill="#84BE84" rx="3" ry="3" style="stroke:#038048;stroke-width:1.0;"/><text fill="#000000" font-family="sans-serif" font-size="14" lengthAdjust="spacing" textLength="318" x="320.2367" y="865.292">generateMissingSkills(allSkills: string[]): void</text></g><!--MD5=[b34797a66dc35cbf1d65f7e3ca75530e]
class Task--><g id="elem_Task"><rect codeLine="20" fill="#F1F1F1" height="96.8906" id="Task" rx="2.5" ry="2.5" style="stroke:#181818;stroke-width:0.5;" width="198" x="125.2367" y="494"/><ellipse cx="203.4867" cy="510" fill="#ADD1B2" rx="11" ry="11" style="stroke:#181818;stroke-width:1.0;"/><path d="M205.8305,505.6719 C204.893,505.2344 204.2992,505.0938 203.4242,505.0938 C200.7992,505.0938 198.7992,507.1719 198.7992,509.8906 L198.7992,511.0156 C198.7992,513.5938 200.9086,515.4844 203.7992,515.4844 C205.018,515.4844 206.1742,515.1875 206.9242,514.6406 C207.5024,514.2344 207.8305,513.7813 207.8305,513.3906 C207.8305,512.9375 207.4399,512.5469 206.9711,512.5469 C206.7524,512.5469 206.5492,512.625 206.3617,512.8125 C205.9086,513.2969 205.9086,513.2969 205.7211,513.3906 C205.2992,513.6563 204.6117,513.7813 203.8461,513.7813 C201.7992,513.7813 200.5024,512.6875 200.5024,510.9844 L200.5024,509.8906 C200.5024,508.1094 201.7524,506.7969 203.4867,506.7969 C204.0649,506.7969 204.6742,506.9531 205.143,507.2031 C205.6274,507.4844 205.7992,507.7031 205.893,508.1094 C205.9555,508.5156 205.9867,508.6406 206.1274,508.7656 C206.268,508.9063 206.5024,509.0156 206.7211,509.0156 C206.9867,509.0156 207.2524,508.875 207.4242,508.6563 C207.5336,508.5 207.5649,508.3125 207.5649,507.8906 L207.5649,506.4688 C207.5649,506.0313 207.5492,505.9063 207.4555,505.75 C207.2992,505.4844 207.018,505.3438 206.7211,505.3438 C206.4242,505.3438 206.2211,505.4375 206.0024,505.75 L205.8305,505.6719 Z " fill="#000000"/><text fill="#000000" font-family="sans-serif" font-size="14" lengthAdjust="spacing" textLength="33" x="223.9867" y="514.8467">Task</text><line style="stroke:#181818;stroke-width:0.5;" x1="126.2367" x2="322.2367" y1="526" y2="526"/><ellipse cx="136.2367" cy="539.6484" fill="none" rx="3" ry="3" style="stroke:#038048;stroke-width:1.0;"/><text fill="#000000" font-family="sans-serif" font-size="14" lengthAdjust="spacing" textLength="172" x="145.2367" y="542.9951">numberOfDays: number</text><ellipse cx="136.2367" cy="555.9453" fill="none" rx="3" ry="3" style="stroke:#038048;stroke-width:1.0;"/><text fill="#000000" font-family="sans-serif" font-size="14" lengthAdjust="spacing" textLength="156" x="145.2367" y="559.292">securityDays: number</text><ellipse cx="136.2367" cy="572.2422" fill="none" rx="3" ry="3" style="stroke:#038048;stroke-width:1.0;"/><text fill="#000000" font-family="sans-serif" font-size="14" lengthAdjust="spacing" textLength="155" x="145.2367" y="575.5889">neededSkills: SkillSet</text><line style="stroke:#181818;stroke-width:0.5;" x1="126.2367" x2="322.2367" y1="582.8906" y2="582.8906"/></g><!--MD5=[564f406545fa3d41a280ad16d01a3ee5]
class GeneralParameters--><g id="elem_GeneralParameters"><rect codeLine="25" fill="#F1F1F1" height="80.5938" id="GeneralParameters" rx="2.5" ry="2.5" style="stroke:#181818;stroke-width:0.5;" width="256" x="51.2367" y="345"/><ellipse cx="105.4867" cy="361" fill="#ADD1B2" rx="11" ry="11" style="stroke:#181818;stroke-width:1.0;"/><path d="M107.8305,356.6719 C106.893,356.2344 106.2992,356.0938 105.4242,356.0938 C102.7992,356.0938 100.7992,358.1719 100.7992,360.8906 L100.7992,362.0156 C100.7992,364.5938 102.9086,366.4844 105.7992,366.4844 C107.018,366.4844 108.1742,366.1875 108.9242,365.6406 C109.5024,365.2344 109.8305,364.7813 109.8305,364.3906 C109.8305,363.9375 109.4399,363.5469 108.9711,363.5469 C108.7524,363.5469 108.5492,363.625 108.3617,363.8125 C107.9086,364.2969 107.9086,364.2969 107.7211,364.3906 C107.2992,364.6563 106.6117,364.7813 105.8461,364.7813 C103.7992,364.7813 102.5024,363.6875 102.5024,361.9844 L102.5024,360.8906 C102.5024,359.1094 103.7524,357.7969 105.4867,357.7969 C106.0649,357.7969 106.6742,357.9531 107.143,358.2031 C107.6274,358.4844 107.7992,358.7031 107.893,359.1094 C107.9555,359.5156 107.9867,359.6406 108.1274,359.7656 C108.268,359.9063 108.5024,360.0156 108.7211,360.0156 C108.9867,360.0156 109.2524,359.875 109.4242,359.6563 C109.5336,359.5 109.5649,359.3125 109.5649,358.8906 L109.5649,357.4688 C109.5649,357.0313 109.5492,356.9063 109.4555,356.75 C109.2992,356.4844 109.018,356.3438 108.7211,356.3438 C108.4242,356.3438 108.2211,356.4375 108.0024,356.75 L107.8305,356.6719 Z " fill="#000000"/><text fill="#000000" font-family="sans-serif" font-size="14" lengthAdjust="spacing" textLength="139" x="125.9867" y="365.8467">GeneralParameters</text><line style="stroke:#181818;stroke-width:0.5;" x1="52.2367" x2="306.2367" y1="377" y2="377"/><rect fill="none" height="6" style="stroke:#C82930;stroke-width:1.0;" width="6" x="59.2367" y="387.6484"/><text fill="#000000" font-family="sans-serif" font-size="14" lengthAdjust="spacing" textLength="230" x="71.2367" y="393.9951">numberOfDaysInSprint: number</text><rect fill="none" height="6" style="stroke:#C82930;stroke-width:1.0;" width="6" x="59.2367" y="403.9453"/><text fill="#000000" font-family="sans-serif" font-size="14" lengthAdjust="spacing" textLength="226" x="71.2367" y="410.292">incompresibleProcesses: Task[]</text><line style="stroke:#181818;stroke-width:0.5;" x1="52.2367" x2="306.2367" y1="417.5938" y2="417.5938"/></g><!--MD5=[3fd616f346a44cd59a91eb10b19e157c]
class User--><g id="elem_User"><rect codeLine="29" fill="#F1F1F1" height="80.5938" id="User" rx="2.5" ry="2.5" style="stroke:#181818;stroke-width:0.5;" width="160" x="403.2367" y="651"/><ellipse cx="463.4867" cy="667" fill="#ADD1B2" rx="11" ry="11" style="stroke:#181818;stroke-width:1.0;"/><path d="M465.8305,662.6719 C464.893,662.2344 464.2992,662.0938 463.4242,662.0938 C460.7992,662.0938 458.7992,664.1719 458.7992,666.8906 L458.7992,668.0156 C458.7992,670.5938 460.9086,672.4844 463.7992,672.4844 C465.018,672.4844 466.1742,672.1875 466.9242,671.6406 C467.5024,671.2344 467.8305,670.7813 467.8305,670.3906 C467.8305,669.9375 467.4399,669.5469 466.9711,669.5469 C466.7524,669.5469 466.5492,669.625 466.3617,669.8125 C465.9086,670.2969 465.9086,670.2969 465.7211,670.3906 C465.2992,670.6563 464.6117,670.7813 463.8461,670.7813 C461.7992,670.7813 460.5024,669.6875 460.5024,667.9844 L460.5024,666.8906 C460.5024,665.1094 461.7524,663.7969 463.4867,663.7969 C464.0649,663.7969 464.6742,663.9531 465.143,664.2031 C465.6274,664.4844 465.7992,664.7031 465.893,665.1094 C465.9555,665.5156 465.9867,665.6406 466.1274,665.7656 C466.268,665.9063 466.5024,666.0156 466.7211,666.0156 C466.9867,666.0156 467.2524,665.875 467.4242,665.6563 C467.5336,665.5 467.5649,665.3125 467.5649,664.8906 L467.5649,663.4688 C467.5649,663.0313 467.5492,662.9063 467.4555,662.75 C467.2992,662.4844 467.018,662.3438 466.7211,662.3438 C466.4242,662.3438 466.2211,662.4375 466.0024,662.75 L465.8305,662.6719 Z " fill="#000000"/><text fill="#000000" font-family="sans-serif" font-size="14" lengthAdjust="spacing" textLength="31" x="483.9867" y="671.8467">User</text><line style="stroke:#181818;stroke-width:0.5;" x1="404.2367" x2="562.2367" y1="683" y2="683"/><polygon fill="none" points="414.2367,691.6484,418.2367,695.6484,414.2367,699.6484,410.2367,695.6484" style="stroke:#B38D22;stroke-width:1.0;"/><text fill="#000000" font-family="sans-serif" font-size="14" lengthAdjust="spacing" textLength="134" x="423.2367" y="699.9951">objectType: string</text><ellipse cx="414.2367" cy="712.9453" fill="none" rx="3" ry="3" style="stroke:#038048;stroke-width:1.0;"/><text fill="#000000" font-family="sans-serif" font-size="14" lengthAdjust="spacing" textLength="99" x="423.2367" y="716.292">skills: SkillSet</text><line style="stroke:#181818;stroke-width:0.5;" x1="404.2367" x2="562.2367" y1="723.5938" y2="723.5938"/></g><!--MD5=[dfb0845b8492ffe07b1ce50e003034d7]
class Team--><g id="elem_Team"><rect codeLine="33" fill="#F1F1F1" height="80.5938" id="Team" rx="2.5" ry="2.5" style="stroke:#181818;stroke-width:0.5;" width="160" x="403.2367" y="502"/><ellipse cx="458.9867" cy="518" fill="#ADD1B2" rx="11" ry="11" style="stroke:#181818;stroke-width:1.0;"/><path d="M461.3305,513.6719 C460.393,513.2344 459.7992,513.0938 458.9242,513.0938 C456.2992,513.0938 454.2992,515.1719 454.2992,517.8906 L454.2992,519.0156 C454.2992,521.5938 456.4086,523.4844 459.2992,523.4844 C460.518,523.4844 461.6742,523.1875 462.4242,522.6406 C463.0024,522.2344 463.3305,521.7813 463.3305,521.3906 C463.3305,520.9375 462.9399,520.5469 462.4711,520.5469 C462.2524,520.5469 462.0492,520.625 461.8617,520.8125 C461.4086,521.2969 461.4086,521.2969 461.2211,521.3906 C460.7992,521.6563 460.1117,521.7813 459.3461,521.7813 C457.2992,521.7813 456.0024,520.6875 456.0024,518.9844 L456.0024,517.8906 C456.0024,516.1094 457.2524,514.7969 458.9867,514.7969 C459.5649,514.7969 460.1742,514.9531 460.643,515.2031 C461.1274,515.4844 461.2992,515.7031 461.393,516.1094 C461.4555,516.5156 461.4867,516.6406 461.6274,516.7656 C461.768,516.9063 462.0024,517.0156 462.2211,517.0156 C462.4867,517.0156 462.7524,516.875 462.9242,516.6563 C463.0336,516.5 463.0649,516.3125 463.0649,515.8906 L463.0649,514.4688 C463.0649,514.0313 463.0492,513.9063 462.9555,513.75 C462.7992,513.4844 462.518,513.3438 462.2211,513.3438 C461.9242,513.3438 461.7211,513.4375 461.5024,513.75 L461.3305,513.6719 Z " fill="#000000"/><text fill="#000000" font-family="sans-serif" font-size="14" lengthAdjust="spacing" textLength="40" x="479.4867" y="522.8467">Team</text><line style="stroke:#181818;stroke-width:0.5;" x1="404.2367" x2="562.2367" y1="534" y2="534"/><polygon fill="none" points="414.2367,542.6484,418.2367,546.6484,414.2367,550.6484,410.2367,546.6484" style="stroke:#B38D22;stroke-width:1.0;"/><text fill="#000000" font-family="sans-serif" font-size="14" lengthAdjust="spacing" textLength="134" x="423.2367" y="550.9951">objectType: string</text><ellipse cx="414.2367" cy="563.9453" fill="none" rx="3" ry="3" style="stroke:#038048;stroke-width:1.0;"/><text fill="#000000" font-family="sans-serif" font-size="14" lengthAdjust="spacing" textLength="84" x="423.2367" y="567.292">crew: User[]</text><line style="stroke:#181818;stroke-width:0.5;" x1="404.2367" x2="562.2367" y1="574.5938" y2="574.5938"/></g><!--MD5=[452a66c2e8d45f5bd209be454bbcd04f]
class Sprint--><g id="elem_Sprint"><rect codeLine="37" fill="#F1F1F1" height="96.8906" id="Sprint" rx="2.5" ry="2.5" style="stroke:#181818;stroke-width:0.5;" width="160" x="342.2367" y="337"/><ellipse cx="395.4867" cy="353" fill="#ADD1B2" rx="11" ry="11" style="stroke:#181818;stroke-width:1.0;"/><path d="M397.8305,348.6719 C396.893,348.2344 396.2992,348.0938 395.4242,348.0938 C392.7992,348.0938 390.7992,350.1719 390.7992,352.8906 L390.7992,354.0156 C390.7992,356.5938 392.9086,358.4844 395.7992,358.4844 C397.018,358.4844 398.1742,358.1875 398.9242,357.6406 C399.5024,357.2344 399.8305,356.7813 399.8305,356.3906 C399.8305,355.9375 399.4399,355.5469 398.9711,355.5469 C398.7524,355.5469 398.5492,355.625 398.3617,355.8125 C397.9086,356.2969 397.9086,356.2969 397.7211,356.3906 C397.2992,356.6563 396.6117,356.7813 395.8461,356.7813 C393.7992,356.7813 392.5024,355.6875 392.5024,353.9844 L392.5024,352.8906 C392.5024,351.1094 393.7524,349.7969 395.4867,349.7969 C396.0649,349.7969 396.6742,349.9531 397.143,350.2031 C397.6274,350.4844 397.7992,350.7031 397.893,351.1094 C397.9555,351.5156 397.9867,351.6406 398.1274,351.7656 C398.268,351.9063 398.5024,352.0156 398.7211,352.0156 C398.9867,352.0156 399.2524,351.875 399.4242,351.6563 C399.5336,351.5 399.5649,351.3125 399.5649,350.8906 L399.5649,349.4688 C399.5649,349.0313 399.5492,348.9063 399.4555,348.75 C399.2992,348.4844 399.018,348.3438 398.7211,348.3438 C398.4242,348.3438 398.2211,348.4375 398.0024,348.75 L397.8305,348.6719 Z " fill="#000000"/><text fill="#000000" font-family="sans-serif" font-size="14" lengthAdjust="spacing" textLength="45" x="415.9867" y="357.8467">Sprint</text><line style="stroke:#181818;stroke-width:0.5;" x1="343.2367" x2="501.2367" y1="369" y2="369"/><polygon fill="none" points="353.2367,377.6484,357.2367,381.6484,353.2367,385.6484,349.2367,381.6484" style="stroke:#B38D22;stroke-width:1.0;"/><text fill="#000000" font-family="sans-serif" font-size="14" lengthAdjust="spacing" textLength="134" x="362.2367" y="385.9951">objectType: string</text><ellipse cx="353.2367" cy="398.9453" fill="none" rx="3" ry="3" style="stroke:#038048;stroke-width:1.0;"/><text fill="#000000" font-family="sans-serif" font-size="14" lengthAdjust="spacing" textLength="109" x="362.2367" y="402.292">backlog: Task[]</text><ellipse cx="353.2367" cy="415.2422" fill="none" rx="3" ry="3" style="stroke:#038048;stroke-width:1.0;"/><text fill="#000000" font-family="sans-serif" font-size="14" lengthAdjust="spacing" textLength="87" x="362.2367" y="418.5889">team: Team</text><line style="stroke:#181818;stroke-width:0.5;" x1="343.2367" x2="501.2367" y1="425.8906" y2="425.8906"/></g><!--MD5=[8b6f65bb686c7ac716a89cb46664d30c]
link SkillSet to Skill--><g id="link_SkillSet_Skill"><path codeLine="42" d="M504.3317,873.332 C518.2737,890.635 534.6497,910.958 548.9337,928.6869 " fill="none" id="SkillSet-to-Skill" style="stroke:#181818;stroke-width:1.0;"/><polygon fill="#181818" points="552.1377,932.6624,549.6048,923.1448,549.0003,928.7693,543.3758,928.1648,552.1377,932.6624" style="stroke:#181818;stroke-width:1.0;"/><text fill="#000000" font-family="sans-serif" font-size="13" lengthAdjust="spacing" textLength="7" x="539.4641" y="922.0684">*</text></g><!--MD5=[672ccc42b505448ecfbbe8673e1f19e1]
link Task to SkillSet--><g id="link_Task_SkillSet"><path codeLine="43" d="M265.1467,591.176 C297.8777,629.304 344.9657,684.115 386.2367,732 C402.0347,750.33 419.4927,770.537 434.5277,787.925 " fill="none" id="Task-to-SkillSet" style="stroke:#181818;stroke-width:1.0;"/><polygon fill="#181818" points="437.8957,791.82,435.0362,782.3954,434.6259,788.0374,428.984,787.6271,437.8957,791.82" style="stroke:#181818;stroke-width:1.0;"/><text fill="#000000" font-family="sans-serif" font-size="13" lengthAdjust="spacing" textLength="8" x="423.5455" y="780.9517">1</text></g><!--MD5=[1419877738e3e545770c395071dae8c3]
link GeneralParameters to Task--><g id="link_GeneralParameters_Task"><path codeLine="44" d="M190.7087,426.014 C196.2537,445.112 202.9847,468.299 208.9577,488.871 " fill="none" id="GeneralParameters-to-Task" style="stroke:#181818;stroke-width:1.0;"/><polygon fill="#181818" points="210.3777,493.765,211.7092,484.0066,208.9834,488.9634,204.0266,486.2375,210.3777,493.765" style="stroke:#181818;stroke-width:1.0;"/><text fill="#000000" font-family="sans-serif" font-size="13" lengthAdjust="spacing" textLength="7" x="200.9366" y="482.9409">*</text></g><!--MD5=[51406a89b84733818b07fb7bba46d5c1]
link User to SkillSet--><g id="link_User_SkillSet"><path codeLine="45" d="M480.0847,732.332 C478.7497,749.199 477.1877,768.936 475.8107,786.341 " fill="none" id="User-to-SkillSet" style="stroke:#181818;stroke-width:1.0;"/><polygon fill="#181818" points="475.3897,791.662,480.087,783.0055,475.784,786.6776,472.1119,782.3746,475.3897,791.662" style="stroke:#181818;stroke-width:1.0;"/><text fill="#000000" font-family="sans-serif" font-size="13" lengthAdjust="spacing" textLength="8" x="467.2547" y="781.068">1</text></g><!--MD5=[bfbf19e9fecc892c9b2ea9d0f7c457cc]
link Team to User--><g id="link_Team_User"><path codeLine="46" d="M483.2367,583.28 C483.2367,602.56 483.2367,625.791 483.2367,645.692 " fill="none" id="Team-to-User" style="stroke:#181818;stroke-width:1.0;"/><polygon fill="#181818" points="483.2367,650.943,487.2367,641.943,483.2367,645.943,479.2367,641.943,483.2367,650.943" style="stroke:#181818;stroke-width:1.0;"/><text fill="#000000" font-family="sans-serif" font-size="13" lengthAdjust="spacing" textLength="7" x="475.6352" y="639.7964">*</text></g><!--MD5=[95495e92c5857f9604e966958a2b0397]
link Sprint to Task--><g id="link_Sprint_Task"><path codeLine="47" d="M361.4847,434.058 C338.5957,451.977 312.4827,472.418 289.2227,490.628 " fill="none" id="Sprint-to-Task" style="stroke:#181818;stroke-width:1.0;"/><polygon fill="#181818" points="285.2147,493.764,294.7674,491.367,289.1522,490.6823,289.8368,485.0671,285.2147,493.764" style="stroke:#181818;stroke-width:1.0;"/><text fill="#000000" font-family="sans-serif" font-size="13" lengthAdjust="spacing" textLength="7" x="286.2976" y="482.9397">*</text></g><!--MD5=[7a9c3a9a0f598c47bf8d46d6a897ad26]
link Sprint to Team--><g id="link_Sprint_Team"><path codeLine="48" d="M441.0367,434.27 C448.9107,454.278 458.0117,477.403 465.7407,497.043 " fill="none" id="Sprint-to-Team" style="stroke:#181818;stroke-width:1.0;"/><polygon fill="#181818" points="467.6747,501.958,468.1004,492.1183,465.8434,497.3054,460.6563,495.0484,467.6747,501.958" style="stroke:#181818;stroke-width:1.0;"/><text fill="#000000" font-family="sans-serif" font-size="13" lengthAdjust="spacing" textLength="8" x="456.3125" y="490.814">1</text></g><!--MD5=[f4c7bcb1df08a91ec7cd0f58f39c280b]
@startuml
abstract class AbstractData {
    #objectType: string
    +{abstract} getIdentifiers(): Map<string, identifierType>
    +equalsByIdentifier(other: AbstractData): boolean
    +getObjectType(): string
}
abstract class DataNamed extends AbstractData {
    -name: string
    +getIdentifiers(): Map<string, identifierType>
    +getName(): string
}
class Skill extends DataNamed {
    #objectType: string
    +level: number
}
class SkillSet {
    +skills: Skill[]
    +generateMissingSkills(allSkills: string[]): void
}
class Task extends DataNamed {
    +numberOfDays: number
    +securityDays: number
    +neededSkills: SkillSet
}
class GeneralParameters {
    -numberOfDaysInSprint: number
    -incompresibleProcesses: Task[]
}
class User extends DataNamed {
    #objectType: string
    +skills: SkillSet
}
class Team extends DataNamed {
    #objectType: string
    +crew: User[]
}
class Sprint extends DataNamed {
    #objectType: string
    +backlog: Task[]
    +team: Team
}
SkillSet - -> "*" Skill
Task - -> "1" SkillSet
GeneralParameters - -> "*" Task
User - -> "1" SkillSet
Team - -> "*" User
Sprint - -> "*" Task
Sprint - -> "1" Team
@enduml

PlantUML version 1.2022.10beta1(Unknown compile time)
(GPL source distribution)
Java Runtime: Java(TM) SE Runtime Environment
JVM: Java HotSpot(TM) 64-Bit Server VM
Default Encoding: UTF-8
Language: en
Country: US
--></g></svg>