<?xml version="1.0" encoding="UTF-8" standalone="no"?><svg xmlns="http://www.w3.org/2000/svg" xmlns:xlink="http://www.w3.org/1999/xlink" contentStyleType="text/css" height="440px" preserveAspectRatio="none" style="width:1384px;height:440px;background:#FFFFFF;" version="1.1" viewBox="0 0 1384 440" width="1384px" zoomAndPan="magnify"><defs/><g><!--MD5=[cc67fa000cf779b429b3e47b1f525800]
class AbstractData--><g id="elem_AbstractData"><rect codeLine="1" fill="#F1F1F1" height="113.1875" id="AbstractData" rx="2.5" ry="2.5" style="stroke:#181818;stroke-width:0.5;" width="379" x="327.5" y="7"/><ellipse cx="466.25" cy="23" fill="#A9DCDF" rx="11" ry="11" style="stroke:#181818;stroke-width:1.0;"/><path d="M468.3281,24.8125 L468.7188,25.7969 L468.3281,25.7969 C467.875,25.7969 467.7656,25.8125 467.6094,25.9219 C467.3594,26.0781 467.2031,26.3594 467.2031,26.6563 C467.2031,26.9219 467.3438,27.1719 467.5625,27.3281 C467.7031,27.4531 467.9063,27.5 468.3281,27.5 L470.6875,27.5 C471.0469,27.5 471.2656,27.4688 471.4063,27.375 C471.6563,27.2344 471.8125,26.9375 471.8125,26.6563 C471.8125,26.375 471.6719,26.125 471.4531,25.9688 C471.2813,25.8281 471.125,25.7969 470.6563,25.7969 L467.2656,17.5938 L463.5938,17.5938 C463.1406,17.5938 463.0156,17.6094 462.8594,17.7031 C462.6094,17.875 462.4531,18.1563 462.4531,18.4375 C462.4531,18.7188 462.5938,18.9688 462.8125,19.1406 C462.9844,19.25 463.1563,19.2813 463.5938,19.2813 L464.6719,19.2813 L462.0313,25.7969 C461.6094,25.7969 461.4531,25.8125 461.2969,25.9219 C461.0469,26.0781 460.8906,26.3594 460.8906,26.6563 C460.8906,27.2188 461.2656,27.5 462.0156,27.5 L464.2813,27.5 C464.6406,27.5 464.8594,27.4688 464.9844,27.375 C465.25,27.2344 465.3906,26.9375 465.3906,26.6563 C465.3906,26.375 465.2656,26.125 465.0469,25.9531 C464.875,25.8281 464.7344,25.7969 464.2813,25.7969 L463.8906,25.7969 L464.2813,24.8125 L468.3281,24.8125 Z M467.625,23.1094 L464.9531,23.1094 L466.2969,19.8438 L467.625,23.1094 Z " fill="#000000"/><text fill="#000000" font-family="sans-serif" font-size="14" font-style="italic" lengthAdjust="spacing" textLength="93" x="486.75" y="27.8467">AbstractData</text><line style="stroke:#181818;stroke-width:0.5;" x1="328.5" x2="705.5" y1="39" y2="39"/><polygon fill="none" points="338.5,47.6484,342.5,51.6484,338.5,55.6484,334.5,51.6484" style="stroke:#B38D22;stroke-width:1.0;"/><text fill="#000000" font-family="sans-serif" font-size="14" lengthAdjust="spacing" textLength="134" x="347.5" y="55.9951">objectType: string</text><line style="stroke:#181818;stroke-width:0.5;" x1="328.5" x2="705.5" y1="63.2969" y2="63.2969"/><ellipse cx="338.5" cy="76.9453" fill="#84BE84" rx="3" ry="3" style="stroke:#038048;stroke-width:1.0;"/><text fill="#000000" font-family="sans-serif" font-size="14" font-style="italic" lengthAdjust="spacing" textLength="314" x="347.5" y="80.292">getIdentifiers(): Map&lt;string, identifierType&gt;</text><ellipse cx="338.5" cy="93.2422" fill="#84BE84" rx="3" ry="3" style="stroke:#038048;stroke-width:1.0;"/><text fill="#000000" font-family="sans-serif" font-size="14" lengthAdjust="spacing" textLength="353" x="347.5" y="96.5889">equalsByIdentifier(other: AbstractData): boolean</text><ellipse cx="338.5" cy="109.5391" fill="#84BE84" rx="3" ry="3" style="stroke:#038048;stroke-width:1.0;"/><text fill="#000000" font-family="sans-serif" font-size="14" lengthAdjust="spacing" textLength="171" x="347.5" y="112.8857">getObjectType(): string</text></g><!--MD5=[f5549c5242da274bec98f8b567531849]
class DataNamed--><g id="elem_DataNamed"><rect codeLine="7" fill="#F1F1F1" height="96.8906" id="DataNamed" rx="2.5" ry="2.5" style="stroke:#181818;stroke-width:0.5;" width="349" x="342.5" y="180"/><ellipse cx="470.25" cy="196" fill="#A9DCDF" rx="11" ry="11" style="stroke:#181818;stroke-width:1.0;"/><path d="M472.3281,197.8125 L472.7188,198.7969 L472.3281,198.7969 C471.875,198.7969 471.7656,198.8125 471.6094,198.9219 C471.3594,199.0781 471.2031,199.3594 471.2031,199.6563 C471.2031,199.9219 471.3438,200.1719 471.5625,200.3281 C471.7031,200.4531 471.9063,200.5 472.3281,200.5 L474.6875,200.5 C475.0469,200.5 475.2656,200.4688 475.4063,200.375 C475.6563,200.2344 475.8125,199.9375 475.8125,199.6563 C475.8125,199.375 475.6719,199.125 475.4531,198.9688 C475.2813,198.8281 475.125,198.7969 474.6563,198.7969 L471.2656,190.5938 L467.5938,190.5938 C467.1406,190.5938 467.0156,190.6094 466.8594,190.7031 C466.6094,190.875 466.4531,191.1563 466.4531,191.4375 C466.4531,191.7188 466.5938,191.9688 466.8125,192.1406 C466.9844,192.25 467.1563,192.2813 467.5938,192.2813 L468.6719,192.2813 L466.0313,198.7969 C465.6094,198.7969 465.4531,198.8125 465.2969,198.9219 C465.0469,199.0781 464.8906,199.3594 464.8906,199.6563 C464.8906,200.2188 465.2656,200.5 466.0156,200.5 L468.2813,200.5 C468.6406,200.5 468.8594,200.4688 468.9844,200.375 C469.25,200.2344 469.3906,199.9375 469.3906,199.6563 C469.3906,199.375 469.2656,199.125 469.0469,198.9531 C468.875,198.8281 468.7344,198.7969 468.2813,198.7969 L467.8906,198.7969 L468.2813,197.8125 L472.3281,197.8125 Z M471.625,196.1094 L468.9531,196.1094 L470.2969,192.8438 L471.625,196.1094 Z " fill="#000000"/><text fill="#000000" font-family="sans-serif" font-size="14" font-style="italic" lengthAdjust="spacing" textLength="85" x="490.75" y="200.8467">DataNamed</text><line style="stroke:#181818;stroke-width:0.5;" x1="343.5" x2="690.5" y1="212" y2="212"/><rect fill="none" height="6" style="stroke:#C82930;stroke-width:1.0;" width="6" x="350.5" y="222.6484"/><text fill="#000000" font-family="sans-serif" font-size="14" lengthAdjust="spacing" textLength="91" x="362.5" y="228.9951">name: string</text><line style="stroke:#181818;stroke-width:0.5;" x1="343.5" x2="690.5" y1="236.2969" y2="236.2969"/><ellipse cx="353.5" cy="249.9453" fill="#84BE84" rx="3" ry="3" style="stroke:#038048;stroke-width:1.0;"/><text fill="#000000" font-family="sans-serif" font-size="14" lengthAdjust="spacing" textLength="323" x="362.5" y="253.292">getIdentifiers(): Map&lt;string, identifierType&gt;</text><ellipse cx="353.5" cy="266.2422" fill="#84BE84" rx="3" ry="3" style="stroke:#038048;stroke-width:1.0;"/><text fill="#000000" font-family="sans-serif" font-size="14" lengthAdjust="spacing" textLength="127" x="362.5" y="269.5889">getName(): string</text></g><!--MD5=[42e1add689e888dd7b55d3ee3f1dd6d7]
class Skill--><g id="elem_Skill"><rect codeLine="12" fill="#F1F1F1" height="80.5938" id="Skill" rx="2.5" ry="2.5" style="stroke:#181818;stroke-width:0.5;" width="160" x="9" y="345"/><ellipse cx="69.75" cy="361" fill="#ADD1B2" rx="11" ry="11" style="stroke:#181818;stroke-width:1.0;"/><path d="M72.0938,356.6719 C71.1563,356.2344 70.5625,356.0938 69.6875,356.0938 C67.0625,356.0938 65.0625,358.1719 65.0625,360.8906 L65.0625,362.0156 C65.0625,364.5938 67.1719,366.4844 70.0625,366.4844 C71.2813,366.4844 72.4375,366.1875 73.1875,365.6406 C73.7656,365.2344 74.0938,364.7813 74.0938,364.3906 C74.0938,363.9375 73.7031,363.5469 73.2344,363.5469 C73.0156,363.5469 72.8125,363.625 72.625,363.8125 C72.1719,364.2969 72.1719,364.2969 71.9844,364.3906 C71.5625,364.6563 70.875,364.7813 70.1094,364.7813 C68.0625,364.7813 66.7656,363.6875 66.7656,361.9844 L66.7656,360.8906 C66.7656,359.1094 68.0156,357.7969 69.75,357.7969 C70.3281,357.7969 70.9375,357.9531 71.4063,358.2031 C71.8906,358.4844 72.0625,358.7031 72.1563,359.1094 C72.2188,359.5156 72.25,359.6406 72.3906,359.7656 C72.5313,359.9063 72.7656,360.0156 72.9844,360.0156 C73.25,360.0156 73.5156,359.875 73.6875,359.6563 C73.7969,359.5 73.8281,359.3125 73.8281,358.8906 L73.8281,357.4688 C73.8281,357.0313 73.8125,356.9063 73.7188,356.75 C73.5625,356.4844 73.2813,356.3438 72.9844,356.3438 C72.6875,356.3438 72.4844,356.4375 72.2656,356.75 L72.0938,356.6719 Z " fill="#000000"/><text fill="#000000" font-family="sans-serif" font-size="14" lengthAdjust="spacing" textLength="30" x="90.25" y="365.8467">Skill</text><line style="stroke:#181818;stroke-width:0.5;" x1="10" x2="168" y1="377" y2="377"/><polygon fill="none" points="20,385.6484,24,389.6484,20,393.6484,16,389.6484" style="stroke:#B38D22;stroke-width:1.0;"/><text fill="#000000" font-family="sans-serif" font-size="14" lengthAdjust="spacing" textLength="134" x="29" y="393.9951">objectType: string</text><ellipse cx="20" cy="406.9453" fill="none" rx="3" ry="3" style="stroke:#038048;stroke-width:1.0;"/><text fill="#000000" font-family="sans-serif" font-size="14" lengthAdjust="spacing" textLength="99" x="29" y="410.292">level: number</text><line style="stroke:#181818;stroke-width:0.5;" x1="10" x2="168" y1="417.5938" y2="417.5938"/></g><!--MD5=[89a3e9b91d198353228b90fadf3cc3b2]
class SkillSet--><g id="elem_SkillSet"><rect codeLine="16" fill="#F1F1F1" height="80.5938" id="SkillSet" rx="2.5" ry="2.5" style="stroke:#181818;stroke-width:0.5;" width="344" x="742" y="23"/><ellipse cx="882.25" cy="39" fill="#ADD1B2" rx="11" ry="11" style="stroke:#181818;stroke-width:1.0;"/><path d="M884.5938,34.6719 C883.6563,34.2344 883.0625,34.0938 882.1875,34.0938 C879.5625,34.0938 877.5625,36.1719 877.5625,38.8906 L877.5625,40.0156 C877.5625,42.5938 879.6719,44.4844 882.5625,44.4844 C883.7813,44.4844 884.9375,44.1875 885.6875,43.6406 C886.2656,43.2344 886.5938,42.7813 886.5938,42.3906 C886.5938,41.9375 886.2031,41.5469 885.7344,41.5469 C885.5156,41.5469 885.3125,41.625 885.125,41.8125 C884.6719,42.2969 884.6719,42.2969 884.4844,42.3906 C884.0625,42.6563 883.375,42.7813 882.6094,42.7813 C880.5625,42.7813 879.2656,41.6875 879.2656,39.9844 L879.2656,38.8906 C879.2656,37.1094 880.5156,35.7969 882.25,35.7969 C882.8281,35.7969 883.4375,35.9531 883.9063,36.2031 C884.3906,36.4844 884.5625,36.7031 884.6563,37.1094 C884.7188,37.5156 884.75,37.6406 884.8906,37.7656 C885.0313,37.9063 885.2656,38.0156 885.4844,38.0156 C885.75,38.0156 886.0156,37.875 886.1875,37.6563 C886.2969,37.5 886.3281,37.3125 886.3281,36.8906 L886.3281,35.4688 C886.3281,35.0313 886.3125,34.9063 886.2188,34.75 C886.0625,34.4844 885.7813,34.3438 885.4844,34.3438 C885.1875,34.3438 884.9844,34.4375 884.7656,34.75 L884.5938,34.6719 Z " fill="#000000"/><text fill="#000000" font-family="sans-serif" font-size="14" lengthAdjust="spacing" textLength="55" x="902.75" y="43.8467">SkillSet</text><line style="stroke:#181818;stroke-width:0.5;" x1="743" x2="1085" y1="55" y2="55"/><ellipse cx="753" cy="68.6484" fill="none" rx="3" ry="3" style="stroke:#038048;stroke-width:1.0;"/><text fill="#000000" font-family="sans-serif" font-size="14" lengthAdjust="spacing" textLength="84" x="762" y="71.9951">skills: Skill[]</text><line style="stroke:#181818;stroke-width:0.5;" x1="743" x2="1085" y1="79.2969" y2="79.2969"/><ellipse cx="753" cy="92.9453" fill="#84BE84" rx="3" ry="3" style="stroke:#038048;stroke-width:1.0;"/><text fill="#000000" font-family="sans-serif" font-size="14" lengthAdjust="spacing" textLength="318" x="762" y="96.292">generateMissingSkills(allSkills: string[]): void</text></g><!--MD5=[b34797a66dc35cbf1d65f7e3ca75530e]
class Task--><g id="elem_Task"><rect codeLine="20" fill="#F1F1F1" height="96.8906" id="Task" rx="2.5" ry="2.5" style="stroke:#181818;stroke-width:0.5;" width="198" x="204" y="337"/><ellipse cx="282.25" cy="353" fill="#ADD1B2" rx="11" ry="11" style="stroke:#181818;stroke-width:1.0;"/><path d="M284.5938,348.6719 C283.6563,348.2344 283.0625,348.0938 282.1875,348.0938 C279.5625,348.0938 277.5625,350.1719 277.5625,352.8906 L277.5625,354.0156 C277.5625,356.5938 279.6719,358.4844 282.5625,358.4844 C283.7813,358.4844 284.9375,358.1875 285.6875,357.6406 C286.2656,357.2344 286.5938,356.7813 286.5938,356.3906 C286.5938,355.9375 286.2031,355.5469 285.7344,355.5469 C285.5156,355.5469 285.3125,355.625 285.125,355.8125 C284.6719,356.2969 284.6719,356.2969 284.4844,356.3906 C284.0625,356.6563 283.375,356.7813 282.6094,356.7813 C280.5625,356.7813 279.2656,355.6875 279.2656,353.9844 L279.2656,352.8906 C279.2656,351.1094 280.5156,349.7969 282.25,349.7969 C282.8281,349.7969 283.4375,349.9531 283.9063,350.2031 C284.3906,350.4844 284.5625,350.7031 284.6563,351.1094 C284.7188,351.5156 284.75,351.6406 284.8906,351.7656 C285.0313,351.9063 285.2656,352.0156 285.4844,352.0156 C285.75,352.0156 286.0156,351.875 286.1875,351.6563 C286.2969,351.5 286.3281,351.3125 286.3281,350.8906 L286.3281,349.4688 C286.3281,349.0313 286.3125,348.9063 286.2188,348.75 C286.0625,348.4844 285.7813,348.3438 285.4844,348.3438 C285.1875,348.3438 284.9844,348.4375 284.7656,348.75 L284.5938,348.6719 Z " fill="#000000"/><text fill="#000000" font-family="sans-serif" font-size="14" lengthAdjust="spacing" textLength="33" x="302.75" y="357.8467">Task</text><line style="stroke:#181818;stroke-width:0.5;" x1="205" x2="401" y1="369" y2="369"/><ellipse cx="215" cy="382.6484" fill="none" rx="3" ry="3" style="stroke:#038048;stroke-width:1.0;"/><text fill="#000000" font-family="sans-serif" font-size="14" lengthAdjust="spacing" textLength="172" x="224" y="385.9951">numberOfDays: number</text><ellipse cx="215" cy="398.9453" fill="none" rx="3" ry="3" style="stroke:#038048;stroke-width:1.0;"/><text fill="#000000" font-family="sans-serif" font-size="14" lengthAdjust="spacing" textLength="156" x="224" y="402.292">securityDays: number</text><ellipse cx="215" cy="415.2422" fill="none" rx="3" ry="3" style="stroke:#038048;stroke-width:1.0;"/><text fill="#000000" font-family="sans-serif" font-size="14" lengthAdjust="spacing" textLength="155" x="224" y="418.5889">neededSkills: SkillSet</text><line style="stroke:#181818;stroke-width:0.5;" x1="205" x2="401" y1="425.8906" y2="425.8906"/></g><!--MD5=[564f406545fa3d41a280ad16d01a3ee5]
class GeneralParameters--><g id="elem_GeneralParameters"><rect codeLine="25" fill="#F1F1F1" height="80.5938" id="GeneralParameters" rx="2.5" ry="2.5" style="stroke:#181818;stroke-width:0.5;" width="256" x="1121" y="23"/><ellipse cx="1175.25" cy="39" fill="#ADD1B2" rx="11" ry="11" style="stroke:#181818;stroke-width:1.0;"/><path d="M1177.5938,34.6719 C1176.6563,34.2344 1176.0625,34.0938 1175.1875,34.0938 C1172.5625,34.0938 1170.5625,36.1719 1170.5625,38.8906 L1170.5625,40.0156 C1170.5625,42.5938 1172.6719,44.4844 1175.5625,44.4844 C1176.7813,44.4844 1177.9375,44.1875 1178.6875,43.6406 C1179.2656,43.2344 1179.5938,42.7813 1179.5938,42.3906 C1179.5938,41.9375 1179.2031,41.5469 1178.7344,41.5469 C1178.5156,41.5469 1178.3125,41.625 1178.125,41.8125 C1177.6719,42.2969 1177.6719,42.2969 1177.4844,42.3906 C1177.0625,42.6563 1176.375,42.7813 1175.6094,42.7813 C1173.5625,42.7813 1172.2656,41.6875 1172.2656,39.9844 L1172.2656,38.8906 C1172.2656,37.1094 1173.5156,35.7969 1175.25,35.7969 C1175.8281,35.7969 1176.4375,35.9531 1176.9063,36.2031 C1177.3906,36.4844 1177.5625,36.7031 1177.6563,37.1094 C1177.7188,37.5156 1177.75,37.6406 1177.8906,37.7656 C1178.0313,37.9063 1178.2656,38.0156 1178.4844,38.0156 C1178.75,38.0156 1179.0156,37.875 1179.1875,37.6563 C1179.2969,37.5 1179.3281,37.3125 1179.3281,36.8906 L1179.3281,35.4688 C1179.3281,35.0313 1179.3125,34.9063 1179.2188,34.75 C1179.0625,34.4844 1178.7813,34.3438 1178.4844,34.3438 C1178.1875,34.3438 1177.9844,34.4375 1177.7656,34.75 L1177.5938,34.6719 Z " fill="#000000"/><text fill="#000000" font-family="sans-serif" font-size="14" lengthAdjust="spacing" textLength="139" x="1195.75" y="43.8467">GeneralParameters</text><line style="stroke:#181818;stroke-width:0.5;" x1="1122" x2="1376" y1="55" y2="55"/><rect fill="none" height="6" style="stroke:#C82930;stroke-width:1.0;" width="6" x="1129" y="65.6484"/><text fill="#000000" font-family="sans-serif" font-size="14" lengthAdjust="spacing" textLength="230" x="1141" y="71.9951">numberOfDaysInSprint: number</text><rect fill="none" height="6" style="stroke:#C82930;stroke-width:1.0;" width="6" x="1129" y="81.9453"/><text fill="#000000" font-family="sans-serif" font-size="14" lengthAdjust="spacing" textLength="226" x="1141" y="88.292">incompresibleProcesses: Task[]</text><line style="stroke:#181818;stroke-width:0.5;" x1="1122" x2="1376" y1="95.5938" y2="95.5938"/></g><!--MD5=[3fd616f346a44cd59a91eb10b19e157c]
class User--><g id="elem_User"><rect codeLine="29" fill="#F1F1F1" height="80.5938" id="User" rx="2.5" ry="2.5" style="stroke:#181818;stroke-width:0.5;" width="160" x="437" y="345"/><ellipse cx="497.25" cy="361" fill="#ADD1B2" rx="11" ry="11" style="stroke:#181818;stroke-width:1.0;"/><path d="M499.5938,356.6719 C498.6563,356.2344 498.0625,356.0938 497.1875,356.0938 C494.5625,356.0938 492.5625,358.1719 492.5625,360.8906 L492.5625,362.0156 C492.5625,364.5938 494.6719,366.4844 497.5625,366.4844 C498.7813,366.4844 499.9375,366.1875 500.6875,365.6406 C501.2656,365.2344 501.5938,364.7813 501.5938,364.3906 C501.5938,363.9375 501.2031,363.5469 500.7344,363.5469 C500.5156,363.5469 500.3125,363.625 500.125,363.8125 C499.6719,364.2969 499.6719,364.2969 499.4844,364.3906 C499.0625,364.6563 498.375,364.7813 497.6094,364.7813 C495.5625,364.7813 494.2656,363.6875 494.2656,361.9844 L494.2656,360.8906 C494.2656,359.1094 495.5156,357.7969 497.25,357.7969 C497.8281,357.7969 498.4375,357.9531 498.9063,358.2031 C499.3906,358.4844 499.5625,358.7031 499.6563,359.1094 C499.7188,359.5156 499.75,359.6406 499.8906,359.7656 C500.0313,359.9063 500.2656,360.0156 500.4844,360.0156 C500.75,360.0156 501.0156,359.875 501.1875,359.6563 C501.2969,359.5 501.3281,359.3125 501.3281,358.8906 L501.3281,357.4688 C501.3281,357.0313 501.3125,356.9063 501.2188,356.75 C501.0625,356.4844 500.7813,356.3438 500.4844,356.3438 C500.1875,356.3438 499.9844,356.4375 499.7656,356.75 L499.5938,356.6719 Z " fill="#000000"/><text fill="#000000" font-family="sans-serif" font-size="14" lengthAdjust="spacing" textLength="31" x="517.75" y="365.8467">User</text><line style="stroke:#181818;stroke-width:0.5;" x1="438" x2="596" y1="377" y2="377"/><polygon fill="none" points="448,385.6484,452,389.6484,448,393.6484,444,389.6484" style="stroke:#B38D22;stroke-width:1.0;"/><text fill="#000000" font-family="sans-serif" font-size="14" lengthAdjust="spacing" textLength="134" x="457" y="393.9951">objectType: string</text><ellipse cx="448" cy="406.9453" fill="none" rx="3" ry="3" style="stroke:#038048;stroke-width:1.0;"/><text fill="#000000" font-family="sans-serif" font-size="14" lengthAdjust="spacing" textLength="99" x="457" y="410.292">skills: SkillSet</text><line style="stroke:#181818;stroke-width:0.5;" x1="438" x2="596" y1="417.5938" y2="417.5938"/></g><!--MD5=[dfb0845b8492ffe07b1ce50e003034d7]
class Team--><g id="elem_Team"><rect codeLine="33" fill="#F1F1F1" height="80.5938" id="Team" rx="2.5" ry="2.5" style="stroke:#181818;stroke-width:0.5;" width="160" x="632" y="345"/><ellipse cx="687.75" cy="361" fill="#ADD1B2" rx="11" ry="11" style="stroke:#181818;stroke-width:1.0;"/><path d="M690.0938,356.6719 C689.1563,356.2344 688.5625,356.0938 687.6875,356.0938 C685.0625,356.0938 683.0625,358.1719 683.0625,360.8906 L683.0625,362.0156 C683.0625,364.5938 685.1719,366.4844 688.0625,366.4844 C689.2813,366.4844 690.4375,366.1875 691.1875,365.6406 C691.7656,365.2344 692.0938,364.7813 692.0938,364.3906 C692.0938,363.9375 691.7031,363.5469 691.2344,363.5469 C691.0156,363.5469 690.8125,363.625 690.625,363.8125 C690.1719,364.2969 690.1719,364.2969 689.9844,364.3906 C689.5625,364.6563 688.875,364.7813 688.1094,364.7813 C686.0625,364.7813 684.7656,363.6875 684.7656,361.9844 L684.7656,360.8906 C684.7656,359.1094 686.0156,357.7969 687.75,357.7969 C688.3281,357.7969 688.9375,357.9531 689.4063,358.2031 C689.8906,358.4844 690.0625,358.7031 690.1563,359.1094 C690.2188,359.5156 690.25,359.6406 690.3906,359.7656 C690.5313,359.9063 690.7656,360.0156 690.9844,360.0156 C691.25,360.0156 691.5156,359.875 691.6875,359.6563 C691.7969,359.5 691.8281,359.3125 691.8281,358.8906 L691.8281,357.4688 C691.8281,357.0313 691.8125,356.9063 691.7188,356.75 C691.5625,356.4844 691.2813,356.3438 690.9844,356.3438 C690.6875,356.3438 690.4844,356.4375 690.2656,356.75 L690.0938,356.6719 Z " fill="#000000"/><text fill="#000000" font-family="sans-serif" font-size="14" lengthAdjust="spacing" textLength="40" x="708.25" y="365.8467">Team</text><line style="stroke:#181818;stroke-width:0.5;" x1="633" x2="791" y1="377" y2="377"/><polygon fill="none" points="643,385.6484,647,389.6484,643,393.6484,639,389.6484" style="stroke:#B38D22;stroke-width:1.0;"/><text fill="#000000" font-family="sans-serif" font-size="14" lengthAdjust="spacing" textLength="134" x="652" y="393.9951">objectType: string</text><ellipse cx="643" cy="406.9453" fill="none" rx="3" ry="3" style="stroke:#038048;stroke-width:1.0;"/><text fill="#000000" font-family="sans-serif" font-size="14" lengthAdjust="spacing" textLength="84" x="652" y="410.292">crew: User[]</text><line style="stroke:#181818;stroke-width:0.5;" x1="633" x2="791" y1="417.5938" y2="417.5938"/></g><!--MD5=[452a66c2e8d45f5bd209be454bbcd04f]
class Sprint--><g id="elem_Sprint"><rect codeLine="37" fill="#F1F1F1" height="96.8906" id="Sprint" rx="2.5" ry="2.5" style="stroke:#181818;stroke-width:0.5;" width="160" x="827" y="337"/><ellipse cx="880.25" cy="353" fill="#ADD1B2" rx="11" ry="11" style="stroke:#181818;stroke-width:1.0;"/><path d="M882.5938,348.6719 C881.6563,348.2344 881.0625,348.0938 880.1875,348.0938 C877.5625,348.0938 875.5625,350.1719 875.5625,352.8906 L875.5625,354.0156 C875.5625,356.5938 877.6719,358.4844 880.5625,358.4844 C881.7813,358.4844 882.9375,358.1875 883.6875,357.6406 C884.2656,357.2344 884.5938,356.7813 884.5938,356.3906 C884.5938,355.9375 884.2031,355.5469 883.7344,355.5469 C883.5156,355.5469 883.3125,355.625 883.125,355.8125 C882.6719,356.2969 882.6719,356.2969 882.4844,356.3906 C882.0625,356.6563 881.375,356.7813 880.6094,356.7813 C878.5625,356.7813 877.2656,355.6875 877.2656,353.9844 L877.2656,352.8906 C877.2656,351.1094 878.5156,349.7969 880.25,349.7969 C880.8281,349.7969 881.4375,349.9531 881.9063,350.2031 C882.3906,350.4844 882.5625,350.7031 882.6563,351.1094 C882.7188,351.5156 882.75,351.6406 882.8906,351.7656 C883.0313,351.9063 883.2656,352.0156 883.4844,352.0156 C883.75,352.0156 884.0156,351.875 884.1875,351.6563 C884.2969,351.5 884.3281,351.3125 884.3281,350.8906 L884.3281,349.4688 C884.3281,349.0313 884.3125,348.9063 884.2188,348.75 C884.0625,348.4844 883.7813,348.3438 883.4844,348.3438 C883.1875,348.3438 882.9844,348.4375 882.7656,348.75 L882.5938,348.6719 Z " fill="#000000"/><text fill="#000000" font-family="sans-serif" font-size="14" lengthAdjust="spacing" textLength="45" x="900.75" y="357.8467">Sprint</text><line style="stroke:#181818;stroke-width:0.5;" x1="828" x2="986" y1="369" y2="369"/><polygon fill="none" points="838,377.6484,842,381.6484,838,385.6484,834,381.6484" style="stroke:#B38D22;stroke-width:1.0;"/><text fill="#000000" font-family="sans-serif" font-size="14" lengthAdjust="spacing" textLength="134" x="847" y="385.9951">objectType: string</text><ellipse cx="838" cy="398.9453" fill="none" rx="3" ry="3" style="stroke:#038048;stroke-width:1.0;"/><text fill="#000000" font-family="sans-serif" font-size="14" lengthAdjust="spacing" textLength="109" x="847" y="402.292">backlog: Task[]</text><ellipse cx="838" cy="415.2422" fill="none" rx="3" ry="3" style="stroke:#038048;stroke-width:1.0;"/><text fill="#000000" font-family="sans-serif" font-size="14" lengthAdjust="spacing" textLength="87" x="847" y="418.5889">team: Team</text><line style="stroke:#181818;stroke-width:0.5;" x1="828" x2="986" y1="425.8906" y2="425.8906"/></g><!--MD5=[8b6f65bb686c7ac716a89cb46664d30c]
reverse link AbstractData to DataNamed--><g id="link_AbstractData_DataNamed"><path d="M517,140.3 C517,153.819 517,167.547 517,179.988 " fill="none" id="AbstractData-backto-DataNamed" style="stroke:#181818;stroke-width:1.0;"/><polygon fill="none" points="510,140.139,517,120.139,524,140.139,510,140.139" style="stroke:#181818;stroke-width:1.0;"/></g><!--MD5=[4a2dbeec5a2b9f4dbe4a870fdbd53990]
reverse link DataNamed to Skill--><g id="link_DataNamed_Skill"><path d="M335.671,283.287 C286.595,299.223 233.834,317.633 186,337 C179.917,339.4629 173.684,342.1402 167.456,344.9273 " fill="none" id="DataNamed-backto-Skill" style="stroke:#181818;stroke-width:1.0;"/><polygon fill="none" points="333.816,276.531,354.999,277.075,338.1,289.859,333.816,276.531" style="stroke:#181818;stroke-width:1.0;"/></g><!--MD5=[0430914b5f802851e94aacdafb250903]
reverse link DataNamed to Task--><g id="link_DataNamed_Task"><path d="M434.974,288.911 C413.113,304.745 389.779,321.646 368.906,336.7644 " fill="none" id="DataNamed-backto-Task" style="stroke:#181818;stroke-width:1.0;"/><polygon fill="none" points="431.035,283.121,451.339,277.058,439.247,294.46,431.035,283.121" style="stroke:#181818;stroke-width:1.0;"/></g><!--MD5=[79626478efd4c357df1f5da4ad96e7d1]
reverse link DataNamed to User--><g id="link_DataNamed_User"><path d="M517,297.349 C517,313.618 517,330.464 517,344.9577 " fill="none" id="DataNamed-backto-User" style="stroke:#181818;stroke-width:1.0;"/><polygon fill="none" points="510,297.27,517,277.27,524,297.27,510,297.27" style="stroke:#181818;stroke-width:1.0;"/></g><!--MD5=[d16b2dc8dc7f0bbe860dfd9503eb63a7]
reverse link DataNamed to Team--><g id="link_DataNamed_Team"><path d="M592.619,289.607 C615.93,308.137 641.001,328.065 662.121,344.8525 " fill="none" id="DataNamed-backto-Team" style="stroke:#181818;stroke-width:1.0;"/><polygon fill="none" points="588.132,294.983,576.832,277.058,596.844,284.024,588.132,294.983" style="stroke:#181818;stroke-width:1.0;"/></g><!--MD5=[9c5fb8300d63bc71568e98a7a4042937]
reverse link DataNamed to Sprint--><g id="link_DataNamed_Sprint"><path d="M674.668,283.945 C718.825,300.11 766.603,318.472 810,337 C815.518,339.356 821.173,341.8652 826.843,344.4524 " fill="none" id="DataNamed-backto-Sprint" style="stroke:#181818;stroke-width:1.0;"/><polygon fill="none" points="672.067,290.447,655.659,277.038,676.848,277.289,672.067,290.447" style="stroke:#181818;stroke-width:1.0;"/></g><!--MD5=[179f5b6e9e8a8575fa4b5a80bbafe306]
@startuml
abstract class AbstractData {
    #objectType: string
    +{abstract} getIdentifiers(): Map<string, identifierType>
    +equalsByIdentifier(other: AbstractData): boolean
    +getObjectType(): string
}
abstract class DataNamed extends AbstractData {
    -name: string
    +getIdentifiers(): Map<string, identifierType>
    +getName(): string
}
class Skill extends DataNamed {
    #objectType: string
    +level: number
}
class SkillSet {
    +skills: Skill[]
    +generateMissingSkills(allSkills: string[]): void
}
class Task extends DataNamed {
    +numberOfDays: number
    +securityDays: number
    +neededSkills: SkillSet
}
class GeneralParameters {
    -numberOfDaysInSprint: number
    -incompresibleProcesses: Task[]
}
class User extends DataNamed {
    #objectType: string
    +skills: SkillSet
}
class Team extends DataNamed {
    #objectType: string
    +crew: User[]
}
class Sprint extends DataNamed {
    #objectType: string
    +backlog: Task[]
    +team: Team
}
@enduml

PlantUML version 1.2022.10beta1(Unknown compile time)
(GPL source distribution)
Java Runtime: Java(TM) SE Runtime Environment
JVM: Java HotSpot(TM) 64-Bit Server VM
Default Encoding: UTF-8
Language: en
Country: US
--></g></svg>