<?xml version="1.0" encoding="UTF-8" standalone="no"?><svg xmlns="http://www.w3.org/2000/svg" xmlns:xlink="http://www.w3.org/1999/xlink" contentStyleType="text/css" height="722px" preserveAspectRatio="none" style="width:671px;height:722px;background:#FFFFFF;" version="1.1" viewBox="0 0 671 722" width="671px" zoomAndPan="magnify"><defs/><g><!--MD5=[cc67fa000cf779b429b3e47b1f525800]
class AbstractData--><g id="elem_AbstractData"><rect codeLine="1" fill="#F1F1F1" height="113.1875" id="AbstractData" rx="2.5" ry="2.5" style="stroke:#181818;stroke-width:0.5;" width="379" x="9" y="7"/><ellipse cx="147.75" cy="23" fill="#A9DCDF" rx="11" ry="11" style="stroke:#181818;stroke-width:1.0;"/><path d="M149.8281,24.8125 L150.2188,25.7969 L149.8281,25.7969 C149.375,25.7969 149.2656,25.8125 149.1094,25.9219 C148.8594,26.0781 148.7031,26.3594 148.7031,26.6563 C148.7031,26.9219 148.8438,27.1719 149.0625,27.3281 C149.2031,27.4531 149.4063,27.5 149.8281,27.5 L152.1875,27.5 C152.5469,27.5 152.7656,27.4688 152.9063,27.375 C153.1563,27.2344 153.3125,26.9375 153.3125,26.6563 C153.3125,26.375 153.1719,26.125 152.9531,25.9688 C152.7813,25.8281 152.625,25.7969 152.1563,25.7969 L148.7656,17.5938 L145.0938,17.5938 C144.6406,17.5938 144.5156,17.6094 144.3594,17.7031 C144.1094,17.875 143.9531,18.1563 143.9531,18.4375 C143.9531,18.7188 144.0938,18.9688 144.3125,19.1406 C144.4844,19.25 144.6563,19.2813 145.0938,19.2813 L146.1719,19.2813 L143.5313,25.7969 C143.1094,25.7969 142.9531,25.8125 142.7969,25.9219 C142.5469,26.0781 142.3906,26.3594 142.3906,26.6563 C142.3906,27.2188 142.7656,27.5 143.5156,27.5 L145.7813,27.5 C146.1406,27.5 146.3594,27.4688 146.4844,27.375 C146.75,27.2344 146.8906,26.9375 146.8906,26.6563 C146.8906,26.375 146.7656,26.125 146.5469,25.9531 C146.375,25.8281 146.2344,25.7969 145.7813,25.7969 L145.3906,25.7969 L145.7813,24.8125 L149.8281,24.8125 Z M149.125,23.1094 L146.4531,23.1094 L147.7969,19.8438 L149.125,23.1094 Z " fill="#000000"/><text fill="#000000" font-family="sans-serif" font-size="14" font-style="italic" lengthAdjust="spacing" textLength="93" x="168.25" y="27.8467">AbstractData</text><line style="stroke:#181818;stroke-width:0.5;" x1="10" x2="387" y1="39" y2="39"/><polygon fill="none" points="20,47.6484,24,51.6484,20,55.6484,16,51.6484" style="stroke:#B38D22;stroke-width:1.0;"/><text fill="#000000" font-family="sans-serif" font-size="14" lengthAdjust="spacing" textLength="134" x="29" y="55.9951">objectType: string</text><line style="stroke:#181818;stroke-width:0.5;" x1="10" x2="387" y1="63.2969" y2="63.2969"/><ellipse cx="20" cy="76.9453" fill="#84BE84" rx="3" ry="3" style="stroke:#038048;stroke-width:1.0;"/><text fill="#000000" font-family="sans-serif" font-size="14" font-style="italic" lengthAdjust="spacing" textLength="314" x="29" y="80.292">getIdentifiers(): Map&lt;string, identifierType&gt;</text><ellipse cx="20" cy="93.2422" fill="#84BE84" rx="3" ry="3" style="stroke:#038048;stroke-width:1.0;"/><text fill="#000000" font-family="sans-serif" font-size="14" lengthAdjust="spacing" textLength="353" x="29" y="96.5889">equalsByIdentifier(other: AbstractData): boolean</text><ellipse cx="20" cy="109.5391" fill="#84BE84" rx="3" ry="3" style="stroke:#038048;stroke-width:1.0;"/><text fill="#000000" font-family="sans-serif" font-size="14" lengthAdjust="spacing" textLength="171" x="29" y="112.8857">getObjectType(): string</text></g><!--MD5=[f5549c5242da274bec98f8b567531849]
class DataNamed--><g id="elem_DataNamed"><rect codeLine="7" fill="#F1F1F1" height="96.8906" id="DataNamed" rx="2.5" ry="2.5" style="stroke:#181818;stroke-width:0.5;" width="349" x="24" y="180"/><ellipse cx="151.75" cy="196" fill="#A9DCDF" rx="11" ry="11" style="stroke:#181818;stroke-width:1.0;"/><path d="M153.8281,197.8125 L154.2188,198.7969 L153.8281,198.7969 C153.375,198.7969 153.2656,198.8125 153.1094,198.9219 C152.8594,199.0781 152.7031,199.3594 152.7031,199.6563 C152.7031,199.9219 152.8438,200.1719 153.0625,200.3281 C153.2031,200.4531 153.4063,200.5 153.8281,200.5 L156.1875,200.5 C156.5469,200.5 156.7656,200.4688 156.9063,200.375 C157.1563,200.2344 157.3125,199.9375 157.3125,199.6563 C157.3125,199.375 157.1719,199.125 156.9531,198.9688 C156.7813,198.8281 156.625,198.7969 156.1563,198.7969 L152.7656,190.5938 L149.0938,190.5938 C148.6406,190.5938 148.5156,190.6094 148.3594,190.7031 C148.1094,190.875 147.9531,191.1563 147.9531,191.4375 C147.9531,191.7188 148.0938,191.9688 148.3125,192.1406 C148.4844,192.25 148.6563,192.2813 149.0938,192.2813 L150.1719,192.2813 L147.5313,198.7969 C147.1094,198.7969 146.9531,198.8125 146.7969,198.9219 C146.5469,199.0781 146.3906,199.3594 146.3906,199.6563 C146.3906,200.2188 146.7656,200.5 147.5156,200.5 L149.7813,200.5 C150.1406,200.5 150.3594,200.4688 150.4844,200.375 C150.75,200.2344 150.8906,199.9375 150.8906,199.6563 C150.8906,199.375 150.7656,199.125 150.5469,198.9531 C150.375,198.8281 150.2344,198.7969 149.7813,198.7969 L149.3906,198.7969 L149.7813,197.8125 L153.8281,197.8125 Z M153.125,196.1094 L150.4531,196.1094 L151.7969,192.8438 L153.125,196.1094 Z " fill="#000000"/><text fill="#000000" font-family="sans-serif" font-size="14" font-style="italic" lengthAdjust="spacing" textLength="85" x="172.25" y="200.8467">DataNamed</text><line style="stroke:#181818;stroke-width:0.5;" x1="25" x2="372" y1="212" y2="212"/><rect fill="none" height="6" style="stroke:#C82930;stroke-width:1.0;" width="6" x="32" y="222.6484"/><text fill="#000000" font-family="sans-serif" font-size="14" lengthAdjust="spacing" textLength="91" x="44" y="228.9951">name: string</text><line style="stroke:#181818;stroke-width:0.5;" x1="25" x2="372" y1="236.2969" y2="236.2969"/><ellipse cx="35" cy="249.9453" fill="#84BE84" rx="3" ry="3" style="stroke:#038048;stroke-width:1.0;"/><text fill="#000000" font-family="sans-serif" font-size="14" lengthAdjust="spacing" textLength="323" x="44" y="253.292">getIdentifiers(): Map&lt;string, identifierType&gt;</text><ellipse cx="35" cy="266.2422" fill="#84BE84" rx="3" ry="3" style="stroke:#038048;stroke-width:1.0;"/><text fill="#000000" font-family="sans-serif" font-size="14" lengthAdjust="spacing" textLength="127" x="44" y="269.5889">getName(): string</text></g><!--MD5=[42e1add689e888dd7b55d3ee3f1dd6d7]
class Skill--><g id="elem_Skill"><rect codeLine="12" fill="#F1F1F1" height="80.5938" id="Skill" rx="2.5" ry="2.5" style="stroke:#181818;stroke-width:0.5;" width="160" x="159.5" y="635"/><ellipse cx="220.25" cy="651" fill="#ADD1B2" rx="11" ry="11" style="stroke:#181818;stroke-width:1.0;"/><path d="M222.5938,646.6719 C221.6563,646.2344 221.0625,646.0938 220.1875,646.0938 C217.5625,646.0938 215.5625,648.1719 215.5625,650.8906 L215.5625,652.0156 C215.5625,654.5938 217.6719,656.4844 220.5625,656.4844 C221.7813,656.4844 222.9375,656.1875 223.6875,655.6406 C224.2656,655.2344 224.5938,654.7813 224.5938,654.3906 C224.5938,653.9375 224.2031,653.5469 223.7344,653.5469 C223.5156,653.5469 223.3125,653.625 223.125,653.8125 C222.6719,654.2969 222.6719,654.2969 222.4844,654.3906 C222.0625,654.6563 221.375,654.7813 220.6094,654.7813 C218.5625,654.7813 217.2656,653.6875 217.2656,651.9844 L217.2656,650.8906 C217.2656,649.1094 218.5156,647.7969 220.25,647.7969 C220.8281,647.7969 221.4375,647.9531 221.9063,648.2031 C222.3906,648.4844 222.5625,648.7031 222.6563,649.1094 C222.7188,649.5156 222.75,649.6406 222.8906,649.7656 C223.0313,649.9063 223.2656,650.0156 223.4844,650.0156 C223.75,650.0156 224.0156,649.875 224.1875,649.6563 C224.2969,649.5 224.3281,649.3125 224.3281,648.8906 L224.3281,647.4688 C224.3281,647.0313 224.3125,646.9063 224.2188,646.75 C224.0625,646.4844 223.7813,646.3438 223.4844,646.3438 C223.1875,646.3438 222.9844,646.4375 222.7656,646.75 L222.5938,646.6719 Z " fill="#000000"/><text fill="#000000" font-family="sans-serif" font-size="14" lengthAdjust="spacing" textLength="30" x="240.75" y="655.8467">Skill</text><line style="stroke:#181818;stroke-width:0.5;" x1="160.5" x2="318.5" y1="667" y2="667"/><polygon fill="none" points="170.5,675.6484,174.5,679.6484,170.5,683.6484,166.5,679.6484" style="stroke:#B38D22;stroke-width:1.0;"/><text fill="#000000" font-family="sans-serif" font-size="14" lengthAdjust="spacing" textLength="134" x="179.5" y="683.9951">objectType: string</text><ellipse cx="170.5" cy="696.9453" fill="none" rx="3" ry="3" style="stroke:#038048;stroke-width:1.0;"/><text fill="#000000" font-family="sans-serif" font-size="14" lengthAdjust="spacing" textLength="99" x="179.5" y="700.292">level: number</text><line style="stroke:#181818;stroke-width:0.5;" x1="160.5" x2="318.5" y1="707.5938" y2="707.5938"/></g><!--MD5=[89a3e9b91d198353228b90fadf3cc3b2]
class SkillSet--><g id="elem_SkillSet"><rect codeLine="16" fill="#F1F1F1" height="80.5938" id="SkillSet" rx="2.5" ry="2.5" style="stroke:#181818;stroke-width:0.5;" width="344" x="180.5" y="494"/><ellipse cx="320.75" cy="510" fill="#ADD1B2" rx="11" ry="11" style="stroke:#181818;stroke-width:1.0;"/><path d="M323.0938,505.6719 C322.1563,505.2344 321.5625,505.0938 320.6875,505.0938 C318.0625,505.0938 316.0625,507.1719 316.0625,509.8906 L316.0625,511.0156 C316.0625,513.5938 318.1719,515.4844 321.0625,515.4844 C322.2813,515.4844 323.4375,515.1875 324.1875,514.6406 C324.7656,514.2344 325.0938,513.7813 325.0938,513.3906 C325.0938,512.9375 324.7031,512.5469 324.2344,512.5469 C324.0156,512.5469 323.8125,512.625 323.625,512.8125 C323.1719,513.2969 323.1719,513.2969 322.9844,513.3906 C322.5625,513.6563 321.875,513.7813 321.1094,513.7813 C319.0625,513.7813 317.7656,512.6875 317.7656,510.9844 L317.7656,509.8906 C317.7656,508.1094 319.0156,506.7969 320.75,506.7969 C321.3281,506.7969 321.9375,506.9531 322.4063,507.2031 C322.8906,507.4844 323.0625,507.7031 323.1563,508.1094 C323.2188,508.5156 323.25,508.6406 323.3906,508.7656 C323.5313,508.9063 323.7656,509.0156 323.9844,509.0156 C324.25,509.0156 324.5156,508.875 324.6875,508.6563 C324.7969,508.5 324.8281,508.3125 324.8281,507.8906 L324.8281,506.4688 C324.8281,506.0313 324.8125,505.9063 324.7188,505.75 C324.5625,505.4844 324.2813,505.3438 323.9844,505.3438 C323.6875,505.3438 323.4844,505.4375 323.2656,505.75 L323.0938,505.6719 Z " fill="#000000"/><text fill="#000000" font-family="sans-serif" font-size="14" lengthAdjust="spacing" textLength="55" x="341.25" y="514.8467">SkillSet</text><line style="stroke:#181818;stroke-width:0.5;" x1="181.5" x2="523.5" y1="526" y2="526"/><ellipse cx="191.5" cy="539.6484" fill="none" rx="3" ry="3" style="stroke:#038048;stroke-width:1.0;"/><text fill="#000000" font-family="sans-serif" font-size="14" lengthAdjust="spacing" textLength="84" x="200.5" y="542.9951">skills: Skill[]</text><line style="stroke:#181818;stroke-width:0.5;" x1="181.5" x2="523.5" y1="550.2969" y2="550.2969"/><ellipse cx="191.5" cy="563.9453" fill="#84BE84" rx="3" ry="3" style="stroke:#038048;stroke-width:1.0;"/><text fill="#000000" font-family="sans-serif" font-size="14" lengthAdjust="spacing" textLength="318" x="200.5" y="567.292">generateMissingSkills(allSkills: string[]): void</text></g><!--MD5=[b34797a66dc35cbf1d65f7e3ca75530e]
class Task--><g id="elem_Task"><rect codeLine="20" fill="#F1F1F1" height="96.8906" id="Task" rx="2.5" ry="2.5" style="stroke:#181818;stroke-width:0.5;" width="198" x="375.5" y="337"/><ellipse cx="453.75" cy="353" fill="#ADD1B2" rx="11" ry="11" style="stroke:#181818;stroke-width:1.0;"/><path d="M456.0938,348.6719 C455.1563,348.2344 454.5625,348.0938 453.6875,348.0938 C451.0625,348.0938 449.0625,350.1719 449.0625,352.8906 L449.0625,354.0156 C449.0625,356.5938 451.1719,358.4844 454.0625,358.4844 C455.2813,358.4844 456.4375,358.1875 457.1875,357.6406 C457.7656,357.2344 458.0938,356.7813 458.0938,356.3906 C458.0938,355.9375 457.7031,355.5469 457.2344,355.5469 C457.0156,355.5469 456.8125,355.625 456.625,355.8125 C456.1719,356.2969 456.1719,356.2969 455.9844,356.3906 C455.5625,356.6563 454.875,356.7813 454.1094,356.7813 C452.0625,356.7813 450.7656,355.6875 450.7656,353.9844 L450.7656,352.8906 C450.7656,351.1094 452.0156,349.7969 453.75,349.7969 C454.3281,349.7969 454.9375,349.9531 455.4063,350.2031 C455.8906,350.4844 456.0625,350.7031 456.1563,351.1094 C456.2188,351.5156 456.25,351.6406 456.3906,351.7656 C456.5313,351.9063 456.7656,352.0156 456.9844,352.0156 C457.25,352.0156 457.5156,351.875 457.6875,351.6563 C457.7969,351.5 457.8281,351.3125 457.8281,350.8906 L457.8281,349.4688 C457.8281,349.0313 457.8125,348.9063 457.7188,348.75 C457.5625,348.4844 457.2813,348.3438 456.9844,348.3438 C456.6875,348.3438 456.4844,348.4375 456.2656,348.75 L456.0938,348.6719 Z " fill="#000000"/><text fill="#000000" font-family="sans-serif" font-size="14" lengthAdjust="spacing" textLength="33" x="474.25" y="357.8467">Task</text><line style="stroke:#181818;stroke-width:0.5;" x1="376.5" x2="572.5" y1="369" y2="369"/><ellipse cx="386.5" cy="382.6484" fill="none" rx="3" ry="3" style="stroke:#038048;stroke-width:1.0;"/><text fill="#000000" font-family="sans-serif" font-size="14" lengthAdjust="spacing" textLength="172" x="395.5" y="385.9951">numberOfDays: number</text><ellipse cx="386.5" cy="398.9453" fill="none" rx="3" ry="3" style="stroke:#038048;stroke-width:1.0;"/><text fill="#000000" font-family="sans-serif" font-size="14" lengthAdjust="spacing" textLength="156" x="395.5" y="402.292">securityDays: number</text><ellipse cx="386.5" cy="415.2422" fill="none" rx="3" ry="3" style="stroke:#038048;stroke-width:1.0;"/><text fill="#000000" font-family="sans-serif" font-size="14" lengthAdjust="spacing" textLength="155" x="395.5" y="418.5889">neededSkills: SkillSet</text><line style="stroke:#181818;stroke-width:0.5;" x1="376.5" x2="572.5" y1="425.8906" y2="425.8906"/></g><!--MD5=[564f406545fa3d41a280ad16d01a3ee5]
class GeneralParameters--><g id="elem_GeneralParameters"><rect codeLine="25" fill="#F1F1F1" height="80.5938" id="GeneralParameters" rx="2.5" ry="2.5" style="stroke:#181818;stroke-width:0.5;" width="256" x="408.5" y="188"/><ellipse cx="462.75" cy="204" fill="#ADD1B2" rx="11" ry="11" style="stroke:#181818;stroke-width:1.0;"/><path d="M465.0938,199.6719 C464.1563,199.2344 463.5625,199.0938 462.6875,199.0938 C460.0625,199.0938 458.0625,201.1719 458.0625,203.8906 L458.0625,205.0156 C458.0625,207.5938 460.1719,209.4844 463.0625,209.4844 C464.2813,209.4844 465.4375,209.1875 466.1875,208.6406 C466.7656,208.2344 467.0938,207.7813 467.0938,207.3906 C467.0938,206.9375 466.7031,206.5469 466.2344,206.5469 C466.0156,206.5469 465.8125,206.625 465.625,206.8125 C465.1719,207.2969 465.1719,207.2969 464.9844,207.3906 C464.5625,207.6563 463.875,207.7813 463.1094,207.7813 C461.0625,207.7813 459.7656,206.6875 459.7656,204.9844 L459.7656,203.8906 C459.7656,202.1094 461.0156,200.7969 462.75,200.7969 C463.3281,200.7969 463.9375,200.9531 464.4063,201.2031 C464.8906,201.4844 465.0625,201.7031 465.1563,202.1094 C465.2188,202.5156 465.25,202.6406 465.3906,202.7656 C465.5313,202.9063 465.7656,203.0156 465.9844,203.0156 C466.25,203.0156 466.5156,202.875 466.6875,202.6563 C466.7969,202.5 466.8281,202.3125 466.8281,201.8906 L466.8281,200.4688 C466.8281,200.0313 466.8125,199.9063 466.7188,199.75 C466.5625,199.4844 466.2813,199.3438 465.9844,199.3438 C465.6875,199.3438 465.4844,199.4375 465.2656,199.75 L465.0938,199.6719 Z " fill="#000000"/><text fill="#000000" font-family="sans-serif" font-size="14" lengthAdjust="spacing" textLength="139" x="483.25" y="208.8467">GeneralParameters</text><line style="stroke:#181818;stroke-width:0.5;" x1="409.5" x2="663.5" y1="220" y2="220"/><rect fill="none" height="6" style="stroke:#C82930;stroke-width:1.0;" width="6" x="416.5" y="230.6484"/><text fill="#000000" font-family="sans-serif" font-size="14" lengthAdjust="spacing" textLength="230" x="428.5" y="236.9951">numberOfDaysInSprint: number</text><rect fill="none" height="6" style="stroke:#C82930;stroke-width:1.0;" width="6" x="416.5" y="246.9453"/><text fill="#000000" font-family="sans-serif" font-size="14" lengthAdjust="spacing" textLength="226" x="428.5" y="253.292">incompresibleProcesses: Task[]</text><line style="stroke:#181818;stroke-width:0.5;" x1="409.5" x2="663.5" y1="260.5938" y2="260.5938"/></g><!--MD5=[3fd616f346a44cd59a91eb10b19e157c]
class User--><g id="elem_User"><rect codeLine="29" fill="#F1F1F1" height="80.5938" id="User" rx="2.5" ry="2.5" style="stroke:#181818;stroke-width:0.5;" width="160" x="180.5" y="345"/><ellipse cx="240.75" cy="361" fill="#ADD1B2" rx="11" ry="11" style="stroke:#181818;stroke-width:1.0;"/><path d="M243.0938,356.6719 C242.1563,356.2344 241.5625,356.0938 240.6875,356.0938 C238.0625,356.0938 236.0625,358.1719 236.0625,360.8906 L236.0625,362.0156 C236.0625,364.5938 238.1719,366.4844 241.0625,366.4844 C242.2813,366.4844 243.4375,366.1875 244.1875,365.6406 C244.7656,365.2344 245.0938,364.7813 245.0938,364.3906 C245.0938,363.9375 244.7031,363.5469 244.2344,363.5469 C244.0156,363.5469 243.8125,363.625 243.625,363.8125 C243.1719,364.2969 243.1719,364.2969 242.9844,364.3906 C242.5625,364.6563 241.875,364.7813 241.1094,364.7813 C239.0625,364.7813 237.7656,363.6875 237.7656,361.9844 L237.7656,360.8906 C237.7656,359.1094 239.0156,357.7969 240.75,357.7969 C241.3281,357.7969 241.9375,357.9531 242.4063,358.2031 C242.8906,358.4844 243.0625,358.7031 243.1563,359.1094 C243.2188,359.5156 243.25,359.6406 243.3906,359.7656 C243.5313,359.9063 243.7656,360.0156 243.9844,360.0156 C244.25,360.0156 244.5156,359.875 244.6875,359.6563 C244.7969,359.5 244.8281,359.3125 244.8281,358.8906 L244.8281,357.4688 C244.8281,357.0313 244.8125,356.9063 244.7188,356.75 C244.5625,356.4844 244.2813,356.3438 243.9844,356.3438 C243.6875,356.3438 243.4844,356.4375 243.2656,356.75 L243.0938,356.6719 Z " fill="#000000"/><text fill="#000000" font-family="sans-serif" font-size="14" lengthAdjust="spacing" textLength="31" x="261.25" y="365.8467">User</text><line style="stroke:#181818;stroke-width:0.5;" x1="181.5" x2="339.5" y1="377" y2="377"/><polygon fill="none" points="191.5,385.6484,195.5,389.6484,191.5,393.6484,187.5,389.6484" style="stroke:#B38D22;stroke-width:1.0;"/><text fill="#000000" font-family="sans-serif" font-size="14" lengthAdjust="spacing" textLength="134" x="200.5" y="393.9951">objectType: string</text><ellipse cx="191.5" cy="406.9453" fill="none" rx="3" ry="3" style="stroke:#038048;stroke-width:1.0;"/><text fill="#000000" font-family="sans-serif" font-size="14" lengthAdjust="spacing" textLength="99" x="200.5" y="410.292">skills: SkillSet</text><line style="stroke:#181818;stroke-width:0.5;" x1="181.5" x2="339.5" y1="417.5938" y2="417.5938"/></g><!--MD5=[8b6f65bb686c7ac716a89cb46664d30c]
reverse link AbstractData to DataNamed--><g id="link_AbstractData_DataNamed"><path d="M198.5,140.3 C198.5,153.819 198.5,167.547 198.5,179.988 " fill="none" id="AbstractData-backto-DataNamed" style="stroke:#181818;stroke-width:1.0;"/><polygon fill="none" points="191.5,140.139,198.5,120.139,205.5,140.139,191.5,140.139" style="stroke:#181818;stroke-width:1.0;"/></g><!--MD5=[4a2dbeec5a2b9f4dbe4a870fdbd53990]
reverse link DataNamed to Skill--><g id="link_DataNamed_Skill"><path d="M172.385,296.481 C168.279,309.718 164.676,323.649 162.5,337 C145.483,441.4 128.293,474.906 162.5,575 C169.987,596.909 184.476,617.734 198.884,634.616 " fill="none" id="DataNamed-backto-Skill" style="stroke:#181818;stroke-width:1.0;"/><polygon fill="none" points="165.891,293.829,178.884,277.09,179.165,298.277,165.891,293.829" style="stroke:#181818;stroke-width:1.0;"/></g><!--MD5=[0430914b5f802851e94aacdafb250903]
reverse link DataNamed to Task--><g id="link_DataNamed_Task"><path d="M300.983,287.054 C330.12,303.417 361.523,321.053 389.5,336.764 " fill="none" id="DataNamed-backto-Task" style="stroke:#181818;stroke-width:1.0;"/><polygon fill="none" points="297.195,292.955,283.185,277.058,304.051,280.748,297.195,292.955" style="stroke:#181818;stroke-width:1.0;"/></g><!--MD5=[79626478efd4c357df1f5da4ad96e7d1]
reverse link DataNamed to User--><g id="link_DataNamed_User"><path d="M225.098,295.995 C231.772,312.681 238.725,330.061 244.683,344.958 " fill="none" id="DataNamed-backto-User" style="stroke:#181818;stroke-width:1.0;"/><polygon fill="none" points="218.536,298.439,217.608,277.27,231.535,293.24,218.536,298.439" style="stroke:#181818;stroke-width:1.0;"/></g><!--MD5=[99bd880b36eb16334f527e579dce446d]
link SkillSet to Skill--><g id="link_SkillSet_Skill"><path codeLine="33" d="M320.119,575.332 C306.052,592.635 289.53,612.958 275.118,630.6869 " fill="none" id="SkillSet-to-Skill" style="stroke:#181818;stroke-width:1.0;"/><polygon fill="#181818" points="271.886,634.6624,280.6668,630.2018,275.0399,630.7826,274.4591,625.1556,271.886,634.6624" style="stroke:#181818;stroke-width:1.0;"/><text fill="#000000" font-family="sans-serif" font-size="13" lengthAdjust="spacing" textLength="7" x="269.4897" y="624.0684">*</text></g><!--MD5=[672ccc42b505448ecfbbe8673e1f19e1]
link Task to SkillSet--><g id="link_Task_SkillSet"><path codeLine="34" d="M434.89,434.227 C420.013,452.153 403.192,472.421 388.645,489.948 " fill="none" id="Task-to-SkillSet" style="stroke:#181818;stroke-width:1.0;"/><polygon fill="#181818" points="385.386,493.876,394.2127,489.5069,388.58,490.0292,388.0578,484.3965,385.386,493.876" style="stroke:#181818;stroke-width:1.0;"/><text fill="#000000" font-family="sans-serif" font-size="13" lengthAdjust="spacing" textLength="8" x="382.1702" y="483.017">1</text></g><!--MD5=[1419877738e3e545770c395071dae8c3]
link GeneralParameters to Task--><g id="link_GeneralParameters_Task"><path codeLine="35" d="M520.694,269.014 C513.055,288.112 503.78,311.299 495.552,331.871 " fill="none" id="GeneralParameters-to-Task" style="stroke:#181818;stroke-width:1.0;"/><polygon fill="#181818" points="493.594,336.765,500.6504,329.8943,495.451,332.1226,493.2226,326.9231,493.594,336.765" style="stroke:#181818;stroke-width:1.0;"/><text fill="#000000" font-family="sans-serif" font-size="13" lengthAdjust="spacing" textLength="7" x="488.7869" y="325.9409">*</text></g><!--MD5=[51406a89b84733818b07fb7bba46d5c1]
link User to SkillSet--><g id="link_User_SkillSet"><path codeLine="36" d="M285.397,426.28 C297.616,445.806 312.373,469.384 324.933,489.453 " fill="none" id="User-to-SkillSet" style="stroke:#181818;stroke-width:1.0;"/><polygon fill="#181818" points="327.743,493.943,326.3588,484.1919,325.0903,489.7047,319.5775,488.4362,327.743,493.943" style="stroke:#181818;stroke-width:1.0;"/><text fill="#000000" font-family="sans-serif" font-size="13" lengthAdjust="spacing" textLength="8" x="314.8004" y="482.7964">1</text></g><!--MD5=[7c5347d16d014ef75e0757f70b8ebf83]
@startuml
abstract class AbstractData {
    #objectType: string
    +{abstract} getIdentifiers(): Map<string, identifierType>
    +equalsByIdentifier(other: AbstractData): boolean
    +getObjectType(): string
}
abstract class DataNamed extends AbstractData {
    -name: string
    +getIdentifiers(): Map<string, identifierType>
    +getName(): string
}
class Skill extends DataNamed {
    #objectType: string
    +level: number
}
class SkillSet {
    +skills: Skill[]
    +generateMissingSkills(allSkills: string[]): void
}
class Task extends DataNamed {
    +numberOfDays: number
    +securityDays: number
    +neededSkills: SkillSet
}
class GeneralParameters {
    -numberOfDaysInSprint: number
    -incompresibleProcesses: Task[]
}
class User extends DataNamed {
    #objectType: string
    +skills: SkillSet
}
SkillSet - -> "*" Skill
Task - -> "1" SkillSet
GeneralParameters - -> "*" Task
User - -> "1" SkillSet
@enduml

PlantUML version 1.2022.10beta1(Unknown compile time)
(GPL source distribution)
Java Runtime: Java(TM) SE Runtime Environment
JVM: Java HotSpot(TM) 64-Bit Server VM
Default Encoding: UTF-8
Language: en
Country: US
--></g></svg>